<svg xmlns="http://www.w3.org/2000/svg" xmlns:xlink="http://www.w3.org/1999/xlink">
  <style>.st0{fill:#fff}</style>
  <!--smiles-->
  <symbol xmlns="http://www.w3.org/2000/svg" viewBox="0 0 200 200" id="megusta">
    <circle cx="100" cy="100" r="100" fill-rule="evenodd" clip-rule="evenodd" fill="#3cb64a"/>
    <path d="M165.92 79.55c-.59-4.92-5.03-8.47-9.98-8.47h-32.7c-1.77 0-3.02-1.75-2.43-3.43 2.49-7.05 4.52-14.33 5.23-21.79.66-6.97.15-16.21-6.87-19.96-3.04-1.62-7.9-2.64-11.17-1.24-3.01 1.29-1.98 5.89-1.98 8.43 0 3.84-1.5 7.49-2.65 11.09-3.62 5.07-6.84 10.41-10.48 15.46-3.15 4.38-6.96 10.3-12.6 11.51-2.68.58-4.71 2.75-4.71 5.57v61.59c0 3.14 2.54 5.68 5.68 5.68h57.75c4.97 0 9.41-3.6 9.97-8.54.44-3.89-1.45-7.38-4.44-9.27-.02-.01-.01-.05.01-.05h.11c4.97 0 9.4-3.6 9.96-8.54.44-3.9-1.44-7.38-4.44-9.28-.02-.01-.01-.05.01-.05h.11c4.99 0 9.42-3.62 9.97-8.58.43-3.91-1.49-7.41-4.52-9.29h.56a9.652 9.652 0 009.61-10.84zM64.7 71.99H38.87c-2.68 0-4.86 2.18-4.86 4.86v62.29c0 2.68 2.18 4.86 4.86 4.86H64.7c2.68 0 4.86-2.18 4.86-4.86V76.85c0-2.68-2.18-4.86-4.86-4.86z" fill="#fff"/>
  </symbol>
  <symbol xmlns="http://www.w3.org/2000/svg" viewBox="0 0 200 200" id="nomegusta">
    <circle cx="100" cy="100" r="100" fill-rule="evenodd" clip-rule="evenodd" fill="#d92027"/>
    <path d="M34.08 119.45c.59 4.92 5.03 8.47 9.98 8.47h32.7c1.77 0 3.02 1.75 2.43 3.43-2.49 7.05-4.52 14.33-5.23 21.79-.66 6.97-.15 16.21 6.87 19.96 3.04 1.62 7.9 2.64 11.17 1.24 3.01-1.29 1.98-5.89 1.98-8.43 0-3.84 1.5-7.49 2.65-11.09 3.62-5.07 6.84-10.41 10.48-15.46 3.15-4.38 6.96-10.3 12.6-11.51 2.68-.58 4.71-2.75 4.71-5.57v-61.6c0-3.14-2.54-5.68-5.68-5.68H60.99c-4.97 0-9.41 3.6-9.97 8.54-.44 3.89 1.45 7.38 4.44 9.27.02.01.01.05-.01.05h-.11c-4.97 0-9.4 3.6-9.96 8.54-.44 3.9 1.44 7.38 4.44 9.28.02.01.01.05-.01.05h-.11c-4.99 0-9.42 3.62-9.97 8.58-.43 3.91 1.49 7.41 4.52 9.29h-.56a9.665 9.665 0 00-9.61 10.85zm101.22 7.56h25.83c2.68 0 4.86-2.18 4.86-4.86V59.86c0-2.68-2.18-4.86-4.86-4.86H135.3c-2.68 0-4.86 2.18-4.86 4.86v62.29c0 2.68 2.18 4.86 4.86 4.86z" fill="#fff"/>
  </symbol>
  <symbol xmlns="http://www.w3.org/2000/svg" viewBox="0 0 523 36" id="smilebarra">
    <style>.st1{fill-rule:evenodd;clip-rule:evenodd;fill:#3cb64a}</style>
    <path d="M194.32 6.13h-125c-6.35 0-11.5 5.15-11.5 11.5s5.15 11.5 11.5 11.5h125c6.35 0 11.5-5.15 11.5-11.5s-5.15-11.5-11.5-11.5zm-194.5 6h35v11.18h-35z" fill-rule="evenodd" clip-rule="evenodd" fill="#d92027"/>
    <path class="st1" d="M487.32 12.54h35v11.18h-35z"/>
    <path class="st1" d="M499.225 35.627v-35h11.18v35z"/>
    <path d="M320.32 6.13h-125c-6.35 0-11.5 5.15-11.5 11.5s5.15 11.5 11.5 11.5h125c6.35 0 11.5-5.15 11.5-11.5s-5.15-11.5-11.5-11.5z" fill-rule="evenodd" clip-rule="evenodd" fill="#fdb93f"/>
    <path fill="#3cb64a" d="M447.32 6.13h-125c-6.35 0-11.5 5.15-11.5 11.5s5.15 11.5 11.5 11.5h125c6.35 0 11.5-5.15 11.5-11.5s-5.15-11.5-11.5-11.5z"/>
  </symbol>
  <symbol xmlns="http://www.w3.org/2000/svg" viewBox="0 0 136 136" id="positive">
    <circle cx="67.78" cy="68.04" r="67" fill="#3cb54a"/>
    <path d="M67.85 114.4c-18.1.01-33.24-12.35-36.65-29.91-1.22-6.31-.48-7.03 5.86-5.83 20.98 3.98 41.96 4.12 62.93-.13 4.68-.95 5.35-.22 4.64 4.94-2.4 17.42-18.46 30.92-36.78 30.93z" fill="#3a5c41"/>
    <path d="M46.03 42.93c5.15.13 8.97 4.19 8.82 9.38-.14 5.1-4.32 9.14-9.28 8.99-4.97-.15-8.92-4.39-8.79-9.43.13-5.19 4.14-9.07 9.25-8.94zm52.8 9.34c-.04 5.05-4.3 9.19-9.3 9.03-4.8-.15-8.7-4.21-8.76-9.13-.07-5.25 3.87-9.26 9.09-9.24 5.16.02 9.01 4.04 8.97 9.34z" fill="#3a5d41"/>
  </symbol>
  <symbol xmlns="http://www.w3.org/2000/svg" viewBox="0 0 136 136" id="negative">
    <style>.st1{fill:#d82027}</style>
    <circle class="st1" cx="67.97" cy="68.04" r="67"/>
    <path class="st1" d="M92.07 101.59c-2.19-9.38-11.99-15.27-24.38-15.27-12.55 0-22.14 5.76-24.4 15.27 16.32-3.79 32.47-4.03 48.78 0zM46.58 50.06c-1.9.78-3.34 1.2-4.61 1.93-3.82 2.19-5.38 7.55-3.69 12.28 1.39 3.88 5.56 6.61 9.23 6.04 4.42-.68 7.37-4.48 7.43-9.67.08-6.77-2.76-12.14-8.15-16.1-5.69-4.18-12.63-4.51-17.87-.92 6.13 1.08 12.15 2.06 17.66 6.44zm42.28-.12c5.44-4.27 11.54-5.16 18.17-6.52-13.56-6.24-27.51 3.9-26.56 18.29.32 4.87 4.03 8.68 8.46 8.69 4.13.01 7.98-3.65 8.59-8.16.79-5.99-1.37-9.18-8.66-12.3z"/>
    <path d="M92.07 101.59c-16.31-4.03-32.46-3.79-48.78 0 2.25-9.5 11.84-15.26 24.4-15.27 12.39 0 22.19 5.89 24.38 15.27z" fill="#4f1310"/>
    <path d="M46.58 50.06c-5.51-4.38-11.53-5.36-17.67-6.44 5.24-3.6 12.18-3.27 17.87.92 5.39 3.96 8.23 9.33 8.15 16.1-.06 5.19-3.01 8.99-7.43 9.67-3.67.57-7.84-2.16-9.23-6.04-1.69-4.73-.13-10.09 3.69-12.28 1.28-.73 2.72-1.15 4.62-1.93zm42.28-.12c7.29 3.11 9.45 6.31 8.65 12.3-.6 4.5-4.46 8.16-8.59 8.16-4.43-.01-8.14-3.82-8.46-8.69-.95-14.39 13-24.53 26.56-18.29-6.62 1.36-12.72 2.26-18.16 6.52z" fill="#4f1311"/>
    <circle cx="68.05" cy="68.04" r="67" fill="none"/>
  </symbol>
  <symbol xmlns="http://www.w3.org/2000/svg" viewBox="0 0 136 136" id="neutral">
    <circle cx="67.78" cy="68.04" r="67" fill="#fcb940"/>
    <path d="M67.52 94c-9.65 0-19.29-.02-28.94.02-2.39.01-4.23-.22-4.23-3.39.01-3.19 1.91-3.37 4.27-3.37 19.46.02 38.92.02 58.38 0 2.39 0 4.23.24 4.23 3.41 0 3.2-1.9 3.36-4.27 3.35-9.82-.04-19.63-.02-29.44-.02z" fill="#a9712a"/>
    <path d="M55.11 51.58c.11 4.92-4.06 9.25-9.05 9.41-5.27.16-9.64-4.07-9.6-9.31.03-4.9 4.35-9.2 9.27-9.24 4.83-.05 9.28 4.28 9.38 9.14zm25.35.3c-.09-4.82 4.23-9.3 9.08-9.44 7.78-.22 14.33 10.43 4.89 17.37-6.76 3.56-13.85-1.46-13.97-7.93z" fill="#a26b28"/>
  </symbol>
  <!--post-->
  <symbol xmlns="http://www.w3.org/2000/svg" viewBox="0 0 200 200" id="comentariopost">
    <path d="M156 35H44c-9.56 0-17.33 7.78-17.33 17.33v65c0 9.56 7.78 17.33 17.33 17.33h13v26a4.342 4.342 0 004.33 4.34c1.03 0 2.05-.37 2.85-1.07l33.44-29.26H156c9.56 0 17.33-7.78 17.33-17.33v-65c0-9.56-7.77-17.34-17.33-17.34zm8.67 82.33c0 4.78-3.89 8.67-8.67 8.67H96c-1.05 0-2.06.38-2.85 1.07l-27.48 24.04v-20.78c0-2.39-1.94-4.33-4.33-4.33H44c-4.78 0-8.67-3.89-8.67-8.67v-65c0-4.78 3.89-8.67 8.67-8.67h112c4.78 0 8.67 3.89 8.67 8.67v65z" fill="#fff"/>
  </symbol>
  <symbol xmlns="http://www.w3.org/2000/svg" viewBox="0 0 200 200" id="correopost">
    <path class="st0" d="M167.83 35H32.17c-12.46 0-22.6 10.14-22.6 22.61v84.78c0 12.47 10.14 22.61 22.61 22.61h135.65c12.47 0 22.61-10.14 22.61-22.61V57.61C190.43 45.14 180.29 35 167.83 35zm11.3 107.39c0 6.23-5.07 11.3-11.3 11.3H32.17c-6.23 0-11.3-5.07-11.3-11.3V57.61c0-6.23 5.07-11.3 11.3-11.3h135.65c6.23 0 11.3 5.07 11.3 11.3v84.78z"/>
    <path class="st0" d="M166.55 65.33a5.641 5.641 0 00-7.95-.79L100 112.48 41.41 64.54c-2.42-1.97-5.98-1.62-7.95.79a5.64 5.64 0 00.8 7.95l62.17 50.87c1.04.85 2.31 1.28 3.58 1.28s2.54-.43 3.58-1.28l62.17-50.87c2.41-1.97 2.76-5.53.79-7.95zm-22.99 44.8a5.643 5.643 0 00-7.99 0 5.643 5.643 0 000 7.99l22.61 22.61a5.65 5.65 0 008 0 5.643 5.643 0 000-7.99l-22.62-22.61zm-87.12 0l-22.61 22.61a5.643 5.643 0 000 7.99 5.65 5.65 0 008 0l22.61-22.61a5.643 5.643 0 000-7.99 5.673 5.673 0 00-8 0z"/>
  </symbol>
  <symbol xmlns="http://www.w3.org/2000/svg" viewBox="0 0 200 200" id="facebookpost">
    <path d="M83.11 100.51v62.85c0 .9.73 1.64 1.64 1.64h23.34c.9 0 1.64-.73 1.64-1.64V99.49h16.92c.85 0 1.56-.65 1.63-1.5l1.63-19.25c.08-.96-.67-1.78-1.63-1.78h-18.55V63.31c0-3.2 2.59-5.79 5.79-5.79h13.04c.9 0 1.64-.73 1.64-1.64V36.64c0-.9-.73-1.64-1.64-1.64h-22.04c-12.93 0-23.41 10.48-23.41 23.41v18.55H71.44c-.9 0-1.64.73-1.64 1.64v19.25c0 .9.73 1.64 1.64 1.64h11.67v1.02z" fill-rule="evenodd" clip-rule="evenodd" fill="#fff"/>
  </symbol>
  <symbol xmlns="http://www.w3.org/2000/svg" viewBox="0 0 200 200" id="twitterpost">
    <path d="M178.32 50.58c-5.01 2.27-10.53 3.65-15.94 4.55 2.57-.43 6.36-5.08 7.87-6.96 2.31-2.87 4.23-6.14 5.31-9.67.14-.28.24-.62-.03-.83-.35-.14-.57-.07-.85.07-6.04 3.24-12.29 5.58-18.94 7.25-.55.14-.96 0-1.31-.35-.55-.62-1.07-1.21-1.66-1.69-2.79-2.38-5.79-4.24-9.17-5.62a31.936 31.936 0 00-14.07-2.27c-4.65.3-9.22 1.61-13.35 3.77a34.334 34.334 0 00-10.77 8.8c-3.04 3.75-5.28 8.18-6.43 12.88-1.11 4.53-1.02 9.02-.34 13.6.1.76.04.86-.65.76C71.98 71 50.42 61.69 32.92 41.75c-.76-.87-1.17-.87-1.79.07-7.66 11.48-3.94 29.92 5.63 38.99 1.28 1.21 2.59 2.42 4 3.52-.52.11-6.88-.58-12.56-3.52-.76-.48-1.14-.2-1.21.66-.07 1.24.04 2.38.21 3.73 1.47 11.64 9.53 22.4 20.57 26.6 1.31.55 2.76 1.04 4.17 1.28-2.52.55-5.11.95-12.32.38-.9-.17-1.24.28-.9 1.14 5.42 14.77 17.12 19.16 25.88 21.67 1.17.21 2.35.21 3.52.48-.07.11-.14.11-.21.21-2.91 4.43-12.98 7.73-17.67 9.37-8.53 2.98-17.82 4.32-26.84 3.43-1.44-.21-1.75-.2-2.14 0-.4.24-.05.59.41.96 1.83 1.21 3.69 2.28 5.59 3.31 5.73 3.03 11.7 5.45 17.94 7.18 32.24 8.9 68.56 2.36 92.77-21.69 19.01-18.89 25.67-44.94 25.67-71.02 0-1.02 1.21-1.58 1.92-2.12 4.95-3.72 8.88-8.16 12.57-13.13.83-1.12.78-2.11.78-2.52v-.14c0-.42.05-.3-.59-.01z" fill="#fff"/>
  </symbol>
  <symbol xmlns="http://www.w3.org/2000/svg" viewBox="0 0 200 200" id="whatsapppost">
    <path class="st0" d="M100 35c-35.84 0-65 29.16-65 65 0 12.61 3.58 24.72 10.38 35.23l-9.87 21.75a5.671 5.671 0 005.17 8.02c.5 0 1-.07 1.5-.2l27.21-7.46A64.975 64.975 0 00100 165c35.84 0 65-29.16 65-65s-29.16-65-65-65zm0 118.65a53.68 53.68 0 01-27.01-7.3 5.71 5.71 0 00-4.36-.57l-17.77 4.88 6.19-13.64c.84-1.85.63-4.02-.57-5.67-6.62-9.18-10.12-20.02-10.12-31.34 0-29.58 24.07-53.65 53.65-53.65s53.65 24.07 53.65 53.65c-.01 29.57-24.08 53.64-53.66 53.64z"/>
    <path class="st0" d="M124.99 109.73c-2.72-1.63-6.26-3.45-9.47-2.13-2.46 1.01-4.03 4.86-5.62 6.82-.82 1.01-1.79 1.17-3.05.66-9.23-3.68-16.31-9.84-21.41-18.34-.86-1.32-.71-2.36.33-3.59 1.54-1.81 3.47-3.87 3.89-6.31.42-2.44-.73-5.3-1.74-7.47-1.29-2.78-2.73-6.74-5.52-8.32-2.56-1.45-5.93-.64-8.21 1.22-3.94 3.21-5.83 8.23-5.78 13.2.02 1.41.19 2.82.52 4.19.79 3.28 2.31 6.35 4.02 9.26 1.29 2.2 2.69 4.33 4.2 6.38 4.94 6.71 11.09 12.54 18.2 16.9 3.56 2.18 7.39 4.09 11.35 5.4 4.45 1.47 8.41 3 13.21 2.09 5.03-.95 9.98-4.07 11.98-8.91.59-1.43.89-3.03.56-4.55-.69-3.12-4.93-4.98-7.46-6.5z"/>
  </symbol>
  <symbol xmlns="http://www.w3.org/2000/svg" viewBox="0 0 200 200" id="rsspost">
    <path d="M199.2 100C199.2 45 154.7.5 99.7.5 44.8.5.2 45 .2 100s44.5 99.5 99.5 99.5 99.5-44.5 99.5-99.5z" fill="#faa33d"/>
    <path d="M65.2 147.1c-7.2 0-13-5.8-13-12.9 0-7.1 5.8-12.9 13-12.9s13 5.8 13 12.9c0 7.2-5.8 12.9-13 12.9zm32.2 0c0-11.8-4.4-23.9-12.8-32.3-8.4-8.3-20.4-12.6-32.3-12.6V86.5c34.6 0 60.9 26.3 60.9 60.6H97.4zm31.6.1c0-42-34.4-76.3-76.7-76.3V52.8c52.3 0 94.9 42.3 94.9 94.3H129v.1z" fill="#fff"/>
  </symbol>
  <symbol xmlns="http://www.w3.org/2000/svg" viewBox="0 0 200 200" id="usercomment">
    <circle cx="100" cy="100" r="100" fill-rule="evenodd" clip-rule="evenodd" fill="#bfbfbf"/>
    <path d="M99.59 169.7c-3.74-.1-7.34-.76-10.85-2.18-12.82-5.19-25.68-10.28-38.53-15.4-7.2-2.87-10.54-11.18-7.3-18.23 4.03-8.77 8.06-17.54 12.11-26.3 2.27-4.89 6.44-6.22 11.29-3.76 4.05 2.05 8.03 4.32 12.25 5.94 7.95 3.04 16.25 3.67 24.69 2.57 7.43-.97 14.32-3.46 20.7-7.36 2.41-1.47 4.92-2.65 7.84-2.41 2.77.22 5.04 1.47 6.45 3.85 3.79 6.44 7.47 12.95 11.18 19.43 1.78 3.1 3.55 6.21 5.29 9.33 3.42 6.14 1.32 13.11-5.13 15.87a2121.92 2121.92 0 01-41.28 17.14c-2.7 1.09-5.76 1.27-8.65 1.87 0-.13-.03-.25-.06-.36z" fill="#ffffff"/>
    <circle cx="99.02" cy="66.01" r="36.52" fill="#ffffff"/>
  </symbol>
  <symbol xmlns="http://www.w3.org/2000/svg" viewBox="0 0 200 200" id="linkedinpost">
    <path d="M200 100C200 44.8 155.2 0 100 0S0 44.8 0 100s44.8 100 100 100 100-44.8 100-100z" fill="#1d74a6"/>
    <path d="M62.8 71.4c-7 0-11.8-4.5-11.8-10.6 0-6.2 4.7-10.7 11.9-10.7s11.6 4.4 11.7 10.7c0 6.1-4.4 10.6-11.8 10.6zm9.3 77.5H53.3V80.8h18.8v68.1zm58.9 0v-39.4c0-8.7-5.4-14.7-13-14.7-5.8 0-10.6 4-12.2 7.9-.6 1.4-.7 3.3-.7 5.3v40.9H86.3V80.8h16.8l1.4 7.4c2.8-4.4 10.4-9.8 21.8-9.8 13.9 0 23.5 8.1 23.5 28.1v42.4H131z" fill="#fff"/>
  </symbol>
  <!--hamburguer-->
  <symbol xmlns="http://www.w3.org/2000/svg" viewBox="0 0 200 200" id="mas">
    <path d="M190 80h-70V9.98c0-2.7-1-5.04-2.98-7.02C115.05.98 112.7 0 110 0H90c-2.71 0-5.06.98-7.04 2.96C81 4.94 80 7.28 80 9.98V80H10c-2.7 0-5.04 1-7.03 2.98C.99 84.93 0 87.3 0 90v19.98c0 2.72.99 5.07 2.97 7.04 1.99 1.98 4.33 2.96 7.03 2.96h70V190c0 2.72 1 5.06 2.97 7.04C84.94 199 87.29 200 90 200h20c2.7 0 5.05-1 7.03-2.96 1.98-1.98 2.98-4.32 2.98-7.04v-70.02h70c2.7 0 5.04-.98 7.03-2.96 1.97-1.98 2.97-4.32 2.97-7.04V90c0-2.7-1-5.06-2.97-7.02C195.05 81 192.71 80 190 80z" fill="#cd0000"/>
  </symbol>
  <symbol xmlns="http://www.w3.org/2000/svg" viewBox="0 0 200 200" id="menos">
    <path d="M76 119.98h114c2.7 0 5.04-.98 7.03-2.96 1.97-1.98 2.97-4.32 2.97-7.04V90c0-2.7-1-5.06-2.97-7.02C195.05 81 192.71 80 190 80H76"/>
    <path d="M80 80H10c-2.7 0-5.04 1-7.03 2.98C.99 84.93 0 87.3 0 90v19.98c0 2.72.99 5.07 2.97 7.04 1.99 1.98 4.33 2.96 7.03 2.96h70"/>
  </symbol>
  <symbol xmlns="http://www.w3.org/2000/svg" viewBox="0 0 200 200" id="telegram">
    <path class="st0" d="M100 200C44.86 200 0 155.14 0 100S44.86 0 100 0s100 44.86 100 100-44.86 100-100 100zm0-189.26c-49.22 0-89.26 40.04-89.26 89.26 0 49.22 40.04 89.26 89.26 89.26 49.22 0 89.26-40.04 89.26-89.26 0-49.22-40.04-89.26-89.26-89.26z"/>
    <path class="st0" d="M149.01 50.85c-.43 0-.86.08-1.3.24L35.09 93.88c-3.18 1.21-3.1 5.74.13 6.83l26.11 8.82 15.74 31.51c0 .01.01.02.01.03l.04.08.01-.01c.29.58.88.96 1.51.96.37 0 .75-.13 1.08-.4l14.75-12.51L78 116.69l1.29 16.42-11.83-24.51 62.93-37.8-52.38 45.9 40.77 30.94a7.32 7.32 0 004.46 1.51c3.23 0 6.34-2.12 7.22-5.63l22.04-88.17c.61-2.38-1.26-4.5-3.49-4.5z"/>
  </symbol>
  <symbol xmlns="http://www.w3.org/2000/svg" viewBox="0 0 200 200" id="twitter">
    <path class="st0" d="M100 200C44.86 200 0 155.14 0 100S44.86 0 100 0s100 44.86 100 100-44.86 100-100 100zm0-189.26c-49.22 0-89.26 40.04-89.26 89.26 0 49.22 40.04 89.26 89.26 89.26 49.22 0 89.26-40.04 89.26-89.26 0-49.22-40.04-89.26-89.26-89.26z"/>
    <path class="st0" d="M157.47 63.5c-3.7 1.68-7.78 2.69-11.77 3.36 1.9-.32 4.69-3.75 5.81-5.14 1.71-2.12 3.12-4.53 3.92-7.14.1-.2.18-.46-.02-.61-.26-.1-.42-.05-.62.05-4.46 2.39-9.07 4.12-13.98 5.35-.41.1-.71 0-.96-.26-.41-.46-.79-.89-1.22-1.25a24.725 24.725 0 00-6.77-4.15c-3.28-1.34-6.86-1.9-10.39-1.67-3.43.22-6.81 1.19-9.86 2.78a25.38 25.38 0 00-7.95 6.5c-2.25 2.77-3.9 6.04-4.75 9.51-.82 3.35-.75 6.66-.25 10.04.08.56.03.64-.48.56-19.21-2.86-35.13-9.73-48.06-24.46-.56-.64-.87-.64-1.33.05-5.66 8.48-2.91 22.1 4.15 28.79.94.89 1.91 1.78 2.95 2.6-.38.08-5.08-.43-9.27-2.6-.56-.35-.84-.15-.89.49-.05.92.03 1.76.15 2.75 1.09 8.59 7.04 16.54 15.19 19.64.97.41 2.04.76 3.08.94-1.86.41-3.77.7-9.1.28-.66-.13-.92.2-.66.84 4 10.91 12.64 14.15 19.11 16 .87.15 1.73.15 2.6.35-.05.08-.1.08-.15.15-2.15 3.27-9.59 5.71-13.05 6.92-6.3 2.2-13.16 3.19-19.82 2.54-1.07-.16-1.29-.15-1.58 0-.29.18-.04.44.31.71 1.35.89 2.73 1.68 4.13 2.45 4.23 2.24 8.64 4.03 13.25 5.3 23.81 6.58 50.63 1.74 68.51-16.02 14.04-13.95 18.96-33.19 18.96-52.45 0-.75.89-1.17 1.42-1.57 3.65-2.74 6.56-6.03 9.28-9.7.61-.82.57-1.56.57-1.86v-.1c-.02-.27.02-.18-.46.03z"/>
    <path class="st0" d="M75.97 147.59c9.87 0 .47 0 0 0 1.3 0-.05 0 0 0zm0 0c-.15.01-1.92 0 0 0 0 0-.31 0 0 0zm3.92.1c0-.19 2.07 0 0 0 0-.1.26 0 0 0zm41.23-95.55c-.13.1-.31.1-.48 0h.48z" fill-rule="evenodd" clip-rule="evenodd" fill="#fff"/>
  </symbol>
  <symbol xmlns="http://www.w3.org/2000/svg" viewBox="0 0 200 200" id="youtube">
    <path class="st0" d="M100 200C44.86 200 0 155.14 0 100S44.86 0 100 0s100 44.86 100 100-44.86 100-100 100zm0-189.26c-49.22 0-89.26 40.04-89.26 89.26 0 49.22 40.04 89.26 89.26 89.26 49.22 0 89.26-40.04 89.26-89.26 0-49.22-40.04-89.26-89.26-89.26z"/>
    <path class="st0" d="M159.88 84.83c0-14.18-11.5-25.68-25.68-25.68H67.59c-14.18 0-25.68 11.5-25.68 25.68v31.22c0 14.18 11.5 25.68 25.68 25.68h66.61c14.18 0 25.68-11.5 25.68-25.68V84.83zm-42.03 17.19l-26.56 14.57c-1.15.62-2.19-.21-2.19-1.52V85.16c0-1.33 1.07-2.16 2.23-1.51l26.75 15.34c1.17.67.97 2.38-.23 3.03z"/>
  </symbol>
  <symbol xmlns="http://www.w3.org/2000/svg" viewBox="0 0 200 200" id="instagram">
    <path class="st0" d="M100 200C44.86 200 0 155.14 0 100S44.86 0 100 0s100 44.86 100 100-44.86 100-100 100zm0-190.5C50.1 9.5 9.5 50.1 9.5 100s40.6 90.5 90.5 90.5 90.5-40.6 90.5-90.5S149.9 9.5 100 9.5zm33.72 49.93c-4.09 0-7.4 3.31-7.4 7.4s3.31 7.4 7.4 7.4 7.4-3.31 7.4-7.4-3.31-7.4-7.4-7.4zm-32.9 9.49c-17.14 0-31.08 13.94-31.08 31.08s13.94 31.08 31.08 31.08S131.9 117.14 131.9 100s-13.94-31.08-31.08-31.08zm0 50.99c-10.98 0-19.91-8.93-19.91-19.91s8.93-19.91 19.91-19.91 19.91 8.93 19.91 19.91-8.93 19.91-19.91 19.91zm62.72-45.74c0-20.94-16.98-37.91-37.91-37.91H75.59c-20.94 0-37.91 16.97-37.91 37.91v50.04c0 20.94 16.97 37.91 37.91 37.91h50.04c20.94 0 37.91-16.97 37.91-37.91V74.17zm-11.87 50.04c0 14.38-11.66 26.04-26.04 26.04H75.59c-14.38 0-26.04-11.66-26.04-26.04V74.17c0-14.38 11.66-26.04 26.04-26.04h50.04c14.38 0 26.04 11.66 26.04 26.04v50.04z" fill="#fff"/>
  </symbol>
  <symbol xmlns="http://www.w3.org/2000/svg" viewBox="0 0 200 200" id="linkedin">
    <path class="st0" d="M100 200C44.86 200 0 155.14 0 100S44.86 0 100 0s100 44.86 100 100-44.86 100-100 100zm0-189.24c-49.21 0-89.24 40.03-89.24 89.24 0 49.21 40.03 89.24 89.24 89.24 49.21 0 89.24-40.03 89.24-89.24 0-49.21-40.03-89.24-89.24-89.24z"/>
    <path class="st0" d="M156.53 107.61v37.34c0 .92-.75 1.67-1.67 1.67h-19.28c-.92 0-1.67-.75-1.67-1.67v-34.72c0-9.14-3.27-15.38-11.45-15.38-6.25 0-9.96 4.2-11.6 8.27-.6 1.45-.75 3.47-.75 5.51v36.32c0 .92-.75 1.67-1.67 1.67H89.17c-.93 0-1.67-.75-1.67-1.67.04-9.25.24-54.12.04-64.66-.02-.93.74-1.69 1.67-1.69h19.23c.92 0 1.67.75 1.67 1.67v7.97c-.05.08-.11.15-.15.22h.15v-.22C113.12 83.61 118.48 77 130.5 77c14.88 0 26.03 9.72 26.03 30.61zM54.05 146.62h19.27c.92 0 1.67-.75 1.67-1.67V80.27c0-.92-.75-1.67-1.67-1.67H54.05c-.92 0-1.67.75-1.67 1.67v64.68c0 .93.75 1.67 1.67 1.67z"/>
    <circle cx="63.01" cy="57.84" r="12.11" fill="#ffffff"/>
  </symbol>
  <symbol xmlns="http://www.w3.org/2000/svg" viewBox="0 0 200 200" id="facebook">
    <path class="st0" d="M100 200C44.86 200 0 155.14 0 100S44.86 0 100 0s100 44.86 100 100-44.86 100-100 100zm0-189.26c-49.22 0-89.26 40.04-89.26 89.26 0 49.22 40.04 89.26 89.26 89.26 49.22 0 89.26-40.04 89.26-89.26 0-49.22-40.04-89.26-89.26-89.26z" fill="#fff"/>
    <path class="st0" d="M84.32 100.47v57.96c0 .83.68 1.51 1.51 1.51h21.52c.83 0 1.51-.68 1.51-1.51v-58.9h15.6c.78 0 1.44-.6 1.5-1.38l1.5-17.75c.07-.88-.62-1.64-1.5-1.64h-17.1V66.17c0-2.95 2.39-5.34 5.34-5.34h12.03c.83 0 1.51-.68 1.51-1.51V41.57c0-.83-.68-1.51-1.51-1.51h-20.32c-11.92 0-21.59 9.67-21.59 21.59v17.11H73.56c-.83 0-1.51.68-1.51 1.51v17.75c0 .83.68 1.51 1.51 1.51h10.76v.94z" fill-rule="evenodd" clip-rule="evenodd" fill="#fff"/>
  </symbol>
  <symbol xmlns="http://www.w3.org/2000/svg" viewBox="0 0 200 200" id="rss">
    <path class="st0" d="M101.1 192.5c-50.5 0-91.6-41.1-91.6-91.6S50.6 9.4 101.1 9.4c50.5 0 91.6 41.1 91.6 91.6s-41.1 91.5-91.6 91.5zm0-173.3c-45.1 0-81.7 36.7-81.7 81.7 0 45.1 36.7 81.7 81.7 81.7 45.1 0 81.7-36.7 81.7-81.7s-36.6-81.7-81.7-81.7z"/>
    <path class="st0" d="M63.6 152.1c-7.8 0-14.1-6.3-14.1-14s6.3-14 14.1-14 14.1 6.3 14.1 14-6.3 14-14.1 14zm34.9 0c0-12.8-4.8-26-13.9-35-9.1-9.1-22.2-13.7-35-13.7V86.3c37.5 0 66.1 28.5 66.1 65.8H98.5zm34.3 0c0-45.6-37.3-82.8-83.2-82.8V49.7c56.8 0 103.1 45.9 103.1 102.4h-19.9z"/>
  </symbol>
  <!--services-->
  <symbol xmlns="http://www.w3.org/2000/svg" viewBox="0 0 135 135" id="horoscopo">
    <circle cx="68.5" cy="69.5" r="24.5" fill="#e7e7e7"/>
    <path d="M66.18.5h2.89c.37.2.76.12 1.15.11.25 0 .49 0 .74.01.25.02.5.07.75.01.35.04.71.08 1.06.1 3.26.22 6.49.71 9.67 1.45 12.85 2.98 23.91 9.18 33.13 18.61 7.69 7.86 13.12 17.09 16.28 27.63 1.4 4.66 2.31 9.42 2.57 14.29-.04.43-.05.85.11 1.26v7.16c-.16.41-.15.84-.11 1.26-.03.59-.06 1.17-.11 1.75a65 65 0 01-2.11 11.33c-3.27 11.62-9.23 21.65-17.87 30.08-7.28 7.1-15.75 12.27-25.37 15.53-5.68 1.93-11.52 3.01-17.5 3.39-.42-.05-.83.01-1.25.01-.38-.06-.75-.01-1.13.01-.97-.05-1.95-.05-2.92 0-.38-.02-.75-.07-1.13-.01-.42-.01-.83-.07-1.25-.01-3.7-.24-7.37-.72-10.99-1.56-12.85-2.98-23.9-9.19-33.13-18.61-6.79-6.93-11.82-14.98-15.13-24.11a66.082 66.082 0 01-3.31-13.43c-.31-2.2-.5-4.41-.58-6.63-.01-1.06 0-2.13-.03-3.19-.02-.67.12-1.33.03-2 .01-.28.05-.56.03-.84-.02-.2-.14-.13-.22-.02v-.25c.07.09.16.17.22.03.05-.11.03-.25.04-.37.18-2.67.49-5.33.97-7.97 1.14-6.3 3.13-12.32 6.04-18.01C14.61 24.01 24.87 13.9 38.46 7.2c5.66-2.79 11.63-4.67 17.85-5.73 2.4-.41 4.81-.65 7.23-.86.25.05.5.01.75-.01.25 0 .49 0 .74-.01.39.03.78.11 1.15-.09zm1.46 30.03c-20.21-.06-36.78 16.35-37.04 36.51-.27 20.55 16.33 37.31 36.6 37.54 20.52.23 37.27-16.38 37.46-36.68.18-20.58-16.58-37.42-37.02-37.37zm-49.11 4.05c.11.18.28.24.42.32 3.82 2.21 7.64 4.41 11.47 6.62.07.04.15.08.22.13.15.1.26.1.37-.06.07-.11.15-.2.22-.31 2.84-3.92 6.21-7.29 10.13-10.13.1-.07.2-.15.3-.22.16-.1.18-.21.07-.36-.06-.09-.11-.18-.16-.27-2.19-3.79-4.37-7.57-6.56-11.36-.09-.16-.16-.35-.35-.48a59.621 59.621 0 00-16.13 16.12zm98.21 65.91c-.1-.08-.15-.13-.2-.16-3.93-2.27-7.86-4.54-11.79-6.82-.34-.2-.46-.07-.64.18a45.185 45.185 0 01-10.35 10.35c-.36.26-.36.27-.12.68 2.23 3.86 4.46 7.72 6.69 11.57.07.12.1.28.3.32 6.38-4.32 11.75-9.68 16.11-16.12zm-98.19-.01c2.79 4.89 11.27 13.38 16.14 16.14.13-.08.18-.22.26-.35 1.08-1.87 2.15-3.73 3.23-5.6 1.15-1.99 2.3-3.99 3.46-5.97.17-.28.21-.49-.13-.64-.06-.03-.1-.07-.15-.11a45.077 45.077 0 01-10.13-10.13c-.07-.1-.15-.2-.22-.3-.1-.16-.22-.17-.37-.06-.08.06-.18.11-.27.16-3.79 2.19-7.57 4.37-11.36 6.56-.16.08-.34.14-.46.3zm82.02-82.04l-.16.2-6.81 11.79c-.18.31-.3.29.22.67 3.97 2.86 7.39 6.29 10.26 10.26.36.5.29.43.77.15 3.82-2.21 7.65-4.41 11.47-6.62.13-.08.32-.11.38-.33-4.33-6.4-9.69-11.76-16.13-16.12zM93.7 120.62c-.06-.12-.08-.18-.11-.23-2.26-3.91-4.52-7.82-6.78-11.74-.23-.39-.24-.4-.67-.2-4.52 2.04-9.24 3.32-14.17 3.77-.34.03-.41.16-.41.46.01 4.48 0 8.96.01 13.44 0 .43.01.45.46.41 1.38-.11 2.75-.26 4.12-.46a58.17 58.17 0 0014.8-4.18c.91-.38 1.83-.78 2.75-1.27zm-52.14-.05c.18.19.36.24.53.32 4.2 2.03 8.58 3.52 13.14 4.5 2.62.57 5.27.94 7.94 1.14.55.04.52.07.52-.48v-13.32c0-.47-.01-.47-.47-.51-1.08-.09-2.16-.24-3.23-.43-3.77-.66-7.39-1.76-10.87-3.35-.43-.19-.44-.19-.67.21-1.02 1.76-2.03 3.51-3.04 5.27-1.29 2.22-2.57 4.43-3.85 6.65zm79.09-26.96c.19-.18.24-.37.33-.53 2.02-4.2 3.52-8.58 4.5-13.14.57-2.62.94-5.27 1.14-7.94.04-.53.08-.51-.48-.51h-13.31c-.47 0-.47.01-.51.47-.11 1.13-.26 2.24-.46 3.36a44.36 44.36 0 01-3.32 10.75c-.19.43-.19.43.21.67 1.76 1.02 3.51 2.03 5.27 3.04 2.2 1.28 4.41 2.55 6.63 3.83zM41.54 14.47l.23.43c.87 1.5 1.73 3.01 2.6 4.51 1.33 2.3 2.65 4.6 3.98 6.9.36.62.22.56.89.27l.06-.03c4.45-1.98 9.09-3.22 13.94-3.68.42-.04.42-.04.43-.49V9.19c0-.2.05-.41-.07-.65-7.72.53-15.07 2.49-22.06 5.93zm52.15.06c-.17-.2-.38-.25-.57-.34-4.77-2.3-9.77-3.9-14.98-4.86a59.45 59.45 0 00-6.1-.77c-.46-.04-.47-.02-.47.39v13.44c0 .43.01.43.45.47 1.35.12 2.7.32 4.04.58 3.51.67 6.88 1.75 10.13 3.22.39.18.4.17.62-.2.65-1.12 1.3-2.24 1.95-3.37 1.63-2.85 3.27-5.69 4.93-8.56zM8.61 63.55c.1.03.16.06.22.06 4.56 0 9.13 0 13.69.01.34 0 .4-.14.43-.44.27-2.95.85-5.83 1.71-8.66a43.57 43.57 0 012.08-5.51c.14-.31.15-.5-.19-.63-.08-.03-.15-.08-.22-.12-3.6-2.08-7.21-4.16-10.81-6.24-.31-.18-.61-.35-.97-.55-3.44 6.98-5.4 14.33-5.94 22.08zM120.66 41.5c-.06.03-.12.05-.17.08-3.93 2.27-7.86 4.54-11.79 6.8-.27.15-.4.29-.2.58.04.05.05.12.07.17a43.787 43.787 0 013.74 14.11c.02.26.1.39.37.36.08-.01.17 0 .25 0h13.19c.16 0 .33.05.48-.06.17-5.2-3.4-18.43-5.94-22.04zM14.6 93.6c.12-.06.24-.13.36-.2 2.45-1.41 4.89-2.82 7.34-4.23 1.41-.82 2.83-1.63 4.24-2.45.37-.22.37-.22.2-.62-.03-.08-.07-.15-.1-.23a44.665 44.665 0 01-3.69-13.94c-.04-.44-.04-.45-.54-.45H9.1c-.53 0-.49-.01-.45.48.12 1.52.28 3.04.51 4.55.9 5.78 2.6 11.32 5.14 16.59.07.17.12.36.3.5z"/>
    <path d="M96.81 67.54c-.05 16.12-13.04 29.17-29.18 29.18-16.14 0-29.17-13.04-29.18-29.17 0-16.12 13.03-29.15 29.17-29.18 16.07-.03 29.19 13.1 29.19 29.17zM51.07 80.82c.03-.93.01-1.79.12-2.64.61-4.68 2.81-8.45 6.56-11.29 2.97-2.25 6.36-3.26 10.08-3.3 4.9-.05 8.89-4.4 8.43-9.43a8.698 8.698 0 00-8.58-7.92c-1.43-.02-2.85.13-4.24.41-10.85 2.22-18.04 12.22-17.03 22.84.38 4 1.77 7.59 4.17 10.81.13.17.23.35.49.52zm33.2-26.53c-.07.08-.09.09-.1.1v.31c.04 4.05-1.21 7.67-3.81 10.77-2.93 3.5-6.69 5.48-11.24 5.94-.98.1-1.96.03-2.94.19-4.35.72-7.61 4.78-7.19 9.31a8.69 8.69 0 008.57 7.93c1.53.02 3.05-.16 4.55-.48 13.41-2.87 20.67-17.61 14.75-29.98-.7-1.44-1.55-2.81-2.59-4.09z"/>
    <path d="M67.6 58.85a3.908 3.908 0 01-3.91-3.96c.02-2.18 1.8-3.91 3.99-3.89 2.16.02 3.89 1.78 3.88 3.94 0 2.19-1.76 3.92-3.96 3.91zm.01 17.4c2.2-.01 3.95 1.73 3.95 3.92 0 2.18-1.76 3.94-3.95 3.93a3.922 3.922 0 01-3.92-3.9 3.895 3.895 0 013.92-3.95z"/>
  </symbol>
  <symbol xmlns="http://www.w3.org/2000/svg" viewBox="0 0 135 135" id="juegos">
    <path fill="#e7e7e7" d="M12 12h111v111H12z"/>
    <path d="M130.8.5c3.14 0 3.69.54 3.69 3.62 0 42.29 0 84.59.01 126.88 0 1.47-.14 2.78-1.65 3.49H2.19c-1.31-.6-1.69-1.66-1.69-3.04.02-19.58.01-39.17.02-58.75 0-.55-.02-1.24.28-1.61.45-.54 1.18-1.17 1.79-1.18.61 0 1.42.59 1.8 1.16.34.51.3 1.34.3 2.02.01 18.47.01 36.93.01 55.4v1.73h125.55V4.77H4.7v1.61c0 18.61 0 37.21-.01 55.82 0 .64.04 1.41-.28 1.89-.39.57-1.16 1.25-1.75 1.23-.66-.03-1.4-.68-1.89-1.25C.49 63.7.52 63 .52 62.45.51 42.82.51 23.19.52 3.56c0-2.32.75-3.05 3.13-3.05"/>
    <path d="M67.52 9.82h54.55c2.54 0 3.12.58 3.12 3.15v109.11c0 2.47-.69 3.14-3.16 3.14H12.94c-2.42 0-3.15-.74-3.15-3.18V12.93c0-2.46.65-3.1 3.19-3.1h54.55c-.01 0-.01-.01-.01-.01zm20.68 4.13v32.88h32.78V13.95H88.2zm-74.22 107h32.86V88.18H13.98v32.77zm32.89-69.8H14.05v32.78h32.82V51.15zm36.96 69.87V88.13H51.07v32.89h32.76zM51.1 13.97V46.8h32.77V13.97H51.1zm37.09 37.14v32.82h32.82V51.11H88.19zm-74.17-4.32h32.82V13.98H14.02v32.81zm69.85 37.18V51.14h-32.8c-.03.45-.08.82-.08 1.18-.01 10.12.01 20.24-.04 30.35-.01 1.18.43 1.37 1.46 1.37 10.07-.03 20.14-.02 30.21-.02.37 0 .74-.03 1.25-.05zm37.18 4.21H88.17v32.79h32.88V88.18z"/>
    <path d="M32.44 30.49c0 2.56.01 5.13-.01 7.69-.01 1.5-.73 2.31-1.99 2.32-1.29.01-2-.75-2.01-2.29-.03-4.2-.03-8.39-.01-12.59 0-.75-.09-1.18-.99-1.51-.6-.23-1.17-1.29-1.24-2.03-.09-.99.65-1.69 1.76-1.77.05 0 .09-.01.14-.01 3.36-.04 4.59-.41 4.36 4.03-.05 1.02-.01 2.05-.01 3.08v3.08zm32.51 30.97v2.8c.83 0 1.6-.02 2.38 0 3.79.1 6.7 2.85 6.79 6.38.09 3.85-2.51 6.74-6.42 7.01-1.53.11-3.07.07-4.61.01-1.37-.05-2.18-.86-2.2-2.03-.02-1.19.73-2.01 2.12-2.1 1.44-.09 2.89-.01 4.33-.04 1.62-.04 2.75-1.11 2.72-2.56-.02-1.45-1.14-2.47-2.78-2.5-1.26-.02-2.51.01-3.77-.01-1.9-.04-2.63-.74-2.66-2.6-.03-2.05-.03-4.1.01-6.15.03-1.57.73-2.33 2.3-2.38 2.14-.07 4.29-.07 6.43 0 1.42.05 2.31 1 2.26 2.16-.05 1.18-.96 1.96-2.42 1.99-1.44.05-2.88.02-4.48.02zm41.6 45c-1.22 0-2.36.18-3.42-.03-2.76-.55-4.87-3.43-4.68-6.15.23-3.1 2.69-5.65 5.59-5.79 3.22-.16 6.11 1.73 6.38 4.76.32 3.54.32 7.16 0 10.7-.29 3.09-3.22 4.94-6.53 4.71-2.82-.2-5.24-2.72-5.42-5.64-.08-1.19.61-2.17 1.72-2.33 1.18-.17 2.02.36 2.26 1.53.27 1.35.74 2.48 2.34 2.39 1.28-.07 1.78-1.05 1.75-3.13.01-.32.01-.64.01-1.02zm-3.91-5.97c-.02 1.06.83 1.99 1.87 2.04 1.07.05 2.05-.92 2.04-2.02a1.948 1.948 0 00-1.95-1.93c-1.11-.01-1.95.81-1.96 1.91z"/>
  </symbol>
  <symbol xmlns="http://www.w3.org/2000/svg" viewBox="0 0 135 135" id="loteria">
    <circle cx="68.5" cy="81.5" r="36.5" fill="#e7e7e7"/>
    <path d="M134.5 67.48c-.34 2-.57 4.04-1.05 6.01-2.37 9.65-7.84 17.06-16.31 22.24-2.29 1.4-4.77.88-6.08-1.18-1.31-2.07-.75-4.5 1.56-5.97 3.61-2.31 6.67-5.14 9.04-8.74 5.79-8.78 5.67-21.05-.41-29.65-5.07-7.16-12.02-11.12-20.77-11.66-5.33-.33-10.36.95-15 3.64-.1.06-.17.18-.09.1 2.98 2.01 6.12 3.82 8.9 6.08 8.01 6.51 13.12 14.92 14.76 25.1 2.58 16.01-2.39 29.49-14.71 40.07-6.01 5.15-13.1 8.09-20.97 9.25-17.81 2.61-34.85-6.61-43.04-21.56-.3-.55-1.02-1.09-1.63-1.22C14.51 97.02 3.37 85.67 1.01 71.5c-3-18.01 7.52-34.66 24.35-39.86 3.11-.96 6.48-1.15 9.74-1.59.84-.11 1.39-.28 1.87-1.06 5.99-9.66 14.66-15.58 25.89-16.88 14.94-1.73 26.68 4.1 34.99 16.67.51.77.96 1.26 2.01 1.28 15.94.17 29.87 11.5 33.56 26.96.53 2.23.73 4.53 1.08 6.8v3.66zm-67.02 47.24c18.66-.03 33.79-15.2 33.77-33.87-.02-18.23-14.67-33.72-33.78-33.71-19.27.01-33.82 15.64-33.78 33.85.03 18.55 15.23 33.75 33.79 33.73zM45.71 31.26c1.53.59 3.02 1.09 4.43 1.74 1.64.76 2.56 2.49 2.39 4.15-.19 1.81-1.36 3.36-3.21 3.64-1.12.17-2.42-.07-3.5-.47-5.38-2.02-10.84-2.48-16.41-1.07C9.6 44.23 2.28 68.69 16.12 83.58c2.77 2.98 6.02 5.23 10 6.78-.06-.55-.08-.92-.15-1.29-1.08-5.41-1.06-10.83.01-16.22 1.87-9.46 6.4-17.46 13.72-23.74 9.75-8.37 21.07-11.71 33.84-9.98 1.06.14 1.85-.1 2.75-.73 2.52-1.78 5.09-3.48 7.76-5.01 1.59-.91 3.41-1.44 5.13-2.15-10.31-14.26-32.37-14.91-43.47.02z"/>
    <path d="M65.71 74.04v2.22c2.15.2 4.25.18 6.24.64 4.94 1.14 8.44 6.28 8.88 11.26.37 4.27-.7 8.03-3.91 11-2.51 2.32-5.56 3.08-8.91 2.97-3.51-.11-6.72-1.04-9.31-3.49-.89-.84-1.71-1.9-2.19-3.02-.79-1.84.12-3.91 1.86-4.92 1.68-.98 4.04-.7 5.23.84 1.59 2.04 3.72 2.28 5.99 2.05 1.35-.14 2.26-1 2.63-2.38.85-3.16-.82-6.35-3.54-6.33-1.52.01-3.03.62-4.54 1.01-.83.21-1.63.66-2.47.74-2.36.24-4.37-1.4-4.42-3.75-.1-4.49-.09-8.98-.01-13.47.04-2.12 1.82-3.75 3.93-3.76 4.67-.04 9.34-.04 14 0 2.22.02 4.03 1.93 4.06 4.15.03 2.25-1.81 4.19-4.11 4.23-3.09.04-6.18.01-9.41.01zm-28.99 5.67c.74-10.3 5.34-18.24 13.77-23.96 1.89-1.28 4.42-.81 5.73.94 1.4 1.88 1.1 4.48-.84 5.93-2.35 1.76-4.59 3.6-6.27 6.04-2.51 3.65-3.82 7.67-3.9 12.1-.04 2.24-1.49 3.98-3.47 4.28-2.19.34-4.15-.73-4.75-2.73-.25-.86-.19-1.8-.27-2.6zm27.53-20.27c-2.95.12-4.77-1.04-5.21-3.37-.47-2.47 1.08-4.66 3.69-5.03 1.46-.21 2.94-.3 4.41-.3 2.25 0 4.02 1.78 4.14 4.04.12 2.23-1.52 4.11-3.79 4.34-1.08.11-2.16.22-3.24.32z"/>
  </symbol>
  <symbol xmlns="http://www.w3.org/2000/svg" viewBox="0 0 135 135" id="cartelera">
    <style>.st0{fill:#e7e7e7}</style>
    <path class="st0" d="M20 30L3 38l1 6 4 8h4l11-5s5-2 5-3 2-3 2-3l-2-6-3-5h-5zm17-7l7 14 21-10-8-12zm68 49c-3.76.8-6.69 1.42-9 4-2.06 2.31-2.61 5.04-3 7-.36 1.81-.56 4.12 0 8 .76 5.29 1.85 6.1 3 11 1.5 6.4.3 7.79 2 17 .72 3.91.81 6.21 2 7 6 4 14 2 22 0 1.28-.32 1.68-1.61 2-2 4.94-6.08 1.01-11.56 3-22 1.6-8.39 5.19-10.37 4-17-.7-3.91-2.51-6.36-3-7-3.14-4.07-7.48-5.29-10-6-5.58-1.57-10.14-.6-13 0z"/>
    <path d="M134.34 85.92c-3.7 6.97-4.22 14.74-5.55 22.29-1.14 6.45-2.13 12.92-3.26 19.37-.08.43-.81 1.07-1.23 1.07-8.66.06-17.32.05-26.1.05-.67-3.83-1.34-7.56-1.96-11.3-1.48-8.93-2.93-17.87-4.43-26.8-.11-.63-.49-1.21-.77-1.81-1.89-3.95-1.54-7.68.76-11.41 1.52-2.47 3-4.93 5.7-6.21 1.27-.6 2.72-1.03 4.11-1.11 2.79-.15 5.6.03 8.4 0 .89-.01 1.82-.16 2.67-.43 3.39-1.08 6.56-1.3 9.61 1.13 1.77 1.41 4.09 2.13 5.83 3.56 2.95 2.42 5.56 5.2 6.23 9.22-.01.79-.01 1.58-.01 2.38zm-30.76 11.55c1.61-.16 2.98-.34 4.35-.42 6.04-.35 11.76-1.96 17.26-4.43.44-.2.93-.55 1.15-.97.74-1.42 1.42-2.88 2.01-4.36.36-.9.76-1.88.73-2.81-.07-2.44-4.25-7.09-6.63-7.72-.7-.18-1.44-.56-1.94-1.07-1.38-1.4-4.07-2.47-5.55-1.47-3.42 2.31-7.3-.52-10.68 1.26-.1.05-.33-.21-.52-.24-3.13-.58-5.37.63-6.7 3.58-.24.52-.56 1.02-.89 1.49-1.53 2.17-1.59 4.33-.22 6.64.32.54.55 1.17.66 1.79.43 2.32.75 4.67 1.23 6.98.1.5.65 1.19 1.09 1.27 1.6.28 3.24.35 4.65.48zm21.62.85c-8.56 3.3-17.17 4.64-26.25 3.9.36 2.23.61 4.23 1.02 6.2.86 4.11.9 4.11 5.18 3.78.2-.01.4-.03.59-.04 5.73-.2 11.17-1.64 16.41-3.87.75-.32 1.55-1.26 1.74-2.05.57-2.47.85-5 1.31-7.92zm-2.73 16.19c-6.97 1.21-13.82 2.4-20.81 3.62.14.97.38 2.25.49 3.54.12 1.33.67 1.98 2.1 1.97 5.15-.05 10.29-.01 15.44-.07.48-.01 1.31-.42 1.38-.76.57-2.87.99-5.77 1.4-8.3zM67.01 94.65c-4.9 0-9.8.01-14.69 0-2.71 0-3.76-1.01-3.77-3.64-.01-6.09-.02-12.17 0-18.26.01-2.43 1.09-3.46 3.54-3.46 9.87.01 19.74.01 29.61.02 3.21 0 4.1.9 4.1 4.15 0 5.76-.01 11.51-.03 17.27-.01 3-.93 3.92-3.86 3.92h-14.9zm.04-30.98c-5.09 0-10.18.01-15.26-.01-2.25-.01-3.22-.98-3.22-3.25-.02-5.88-.04-11.77.05-17.65.01-.65.6-1.56 1.18-1.88 2.97-1.64 6.11-2.37 9.6-2.27 7.66.22 15.34.06 23.01.07 2.38 0 3.34.9 3.36 3.31.04 6.08.03 12.16.01 18.25-.01 2.54-.95 3.47-3.44 3.47-5.09.01-10.18 0-15.27 0-.02-.01-.02-.02-.02-.04z"/>
    <path d="M21.9 53.43c.06.53.09 1.03.17 1.54.29 1.91 1.49 3.11 3.44 3.14 3.11.06 6.22.04 9.33-.07 1.67-.06 2.99-.94 3.1-2.71.12-1.95.25-4-.22-5.85-.48-1.94-2.46-2.12-4.6-2.54 1.09-1.03 2.29-1.97 3.22-3.12.9-1.1 1.52-2.42 2.31-3.72.95.54 2.19 1.24 3.52 2v34.87c0 6.22-.01 12.44-.01 18.66 0 2.74 1.09 3.8 3.85 3.8h44.5c.21 1.35.41 2.67.66 4.29H22.1c-3.41 0-4.15-.75-4.15-4.18 0-13.76-.01-27.52-.01-41.28.02-3.73.02-3.73 3.96-4.83zm44.47-19.67c1.03-1.47 1.73-2.58 2.57-3.57.32-.37.99-.62 1.5-.62 14.29-.03 28.59-.03 42.88-.02 1.98 0 3.11 1.08 3.12 3.03.03 11.05.01 22.09.01 33.27-1.39.32-2.75.64-4.1.95-.08-.17-.18-.28-.19-.39-.4-4.93-.61-5.12-5.53-5.12-2.18 0-4.37-.02-6.55.01-2.52.03-3.75 1.23-3.86 3.73-.02.46-.03.93-.04 1.39-.02 2.6-.9 3.63-4.05 4.38 0-2.89-.01-5.7 0-8.51.03-8.07.08-16.14.1-24.21.01-3.31-1.02-4.31-4.41-4.31-6.35-.01-12.71 0-19.06 0-.7-.01-1.4-.01-2.39-.01z"/>
    <path d="M35.83 7.3c3.71.79 7.41 1.63 11.14 2.37 3.73.74 7.52 1.25 11.22 2.16 1.52.37 3.31 1.19 4.16 2.38 2.57 3.57 4.76 7.42 4.85 12.04.05 2.56-1.09 4.5-3.41 5.55-5.45 2.48-10.93 4.91-16.44 7.26-3.63 1.55-7.22-.02-9.13-3.85-.67-1.35-1.26-2.75-1.87-4.14-.58-1.31-1.16-2.63-1.78-4.05-2.1.93-4 1.77-6.05 2.68 1.13 2.54 2.19 4.94 3.25 7.34 1.99 4.53.93 8.98-4.21 10.89-4.86 1.81-9.53 4.15-14.28 6.26-3.56 1.58-7.01.8-8.92-2.55-1.61-2.83-2.94-5.91-3.82-9.04-.44-1.58-.09-3.78.73-5.24C4.96 30.84 8.9 24.45 12.89 18.1c.52-.82 1.84-1.48 2.83-1.53.66-.04 1.76 1.01 1.98 1.78.23.79-.19 1.92-.65 2.72-2 3.48-4.13 6.88-6 10.66C23.27 26.31 35.48 20.9 47.7 15.48v-.41c-2.98-.59-5.95-1.19-8.93-1.78-.9-.18-1.81-.31-2.72-.47-1.34-.23-2.63-.63-2.97-2.14-.38-1.66.42-2.77 1.96-3.38h.79zm-7.9 33.69C27 38 25.27 35.5 23.85 32.94c-.2-.35-1.35-.52-1.86-.3-5.14 2.2-10.22 4.53-15.34 6.77-1.25.55-1.53 1.39-1.04 2.53.92 2.18 1.83 4.37 2.87 6.49.47.96 1.19 1.71 2.54 1.1 5.15-2.33 10.33-4.57 15.47-6.91.53-.26 1.7-.78 1.44-1.63zm34.53-15.36c-1.46-3.63-2.58-5.43-3.99-8-.2-.37-1.35-.57-1.86-.35-5.21 2.22-10.38 4.53-15.55 6.85-1.02.46-1.52 1.15-.95 2.36 1 2.14 1.88 4.34 2.87 6.49.48 1.04 1.22 1.82 2.5 1.25 5.24-2.32 10.47-4.65 15.67-7.04.49-.22 1.64-.75 1.31-1.56z"/>
    <path d="M22.72 41.69l-7.91-1.26a.998.998 0 01-.83-1.15l.11-.7c.09-.55.6-.92 1.15-.83l7.91 1.26c.55.09.92.6.83 1.15l-.11.7c-.1.55-.61.92-1.15.83zm-7.93 3.54l-4.82-.77a.998.998 0 01-.83-1.15l.11-.7c.09-.55.6-.92 1.15-.83l4.82.77c.55.09.92.6.83 1.15l-.11.7c-.09.55-.6.92-1.15.83zm42.69-19.15l-7.91-1.26a.998.998 0 01-.83-1.15l.11-.7c.09-.55.6-.92 1.15-.83l7.91 1.26c.55.09.92.6.83 1.15l-.11.7c-.09.54-.61.91-1.15.83zm-7.55 3.75l-4.82-.77a.998.998 0 01-.83-1.15l.11-.7c.09-.55.6-.92 1.15-.83l4.82.77c.55.09.92.6.83 1.15l-.11.7c-.09.54-.6.92-1.15.83z"/>
    <path class="st0" d="M36 72H24c-1.1 0-2-.9-2-2v-7c0-1.1.9-2 2-2h12c1.1 0 2 .9 2 2v7c0 1.1-.9 2-2 2zm0 14H24c-1.1 0-2-.9-2-2v-7c0-1.1.9-2 2-2h12c1.1 0 2 .9 2 2v7c0 1.1-.9 2-2 2zm0 14H24c-1.1 0-2-.9-2-2v-7c0-1.1.9-2 2-2h12c1.1 0 2 .9 2 2v7c0 1.1-.9 2-2 2zm74.2-41.8h-12c-1.1 0-2-.9-2-2v-7c0-1.1.9-2 2-2h12c1.1 0 2 .9 2 2v7c0 1.1-.9 2-2 2zm-.5-13.9h-12c-1.1 0-2-.9-2-2v-7c0-1.1.9-2 2-2h12c1.1 0 2 .9 2 2v7c0 1.1-.9 2-2 2z"/>
  </symbol>
  <symbol xmlns="http://www.w3.org/2000/svg" viewBox="0 0 135 135" id="television">
    <path fill="#e7e7e7" d="M4 21h128v82H4z"/>
    <path d="M134.49 20.46c0 27.42.01 54.83.01 82.25-.44 2.69-2.45 2.6-4.48 2.6-22.19-.02-44.37-.01-66.56-.01-19.49 0-38.98-.01-58.47.01-2.04 0-4.04.08-4.48-2.6.04-17.8.09-35.59.1-53.39C.6 39.7.54 30.08.51 20.46c.43-1.97 1.74-2.51 3.64-2.51 42.23.03 84.47.03 126.7 0 1.9 0 3.2.54 3.64 2.51zm-66.73 3.13c-19.59 0-39.18.05-58.77-.06-2.33-.01-2.87.56-2.86 2.87.1 23.45.11 46.9-.02 70.36-.01 2.65.94 2.89 3.14 2.89 38.87-.06 77.74-.06 116.62.02 2.42.01 3.02-.59 3.01-3.02-.1-23.35-.09-46.7-.01-70.04.01-2.31-.42-3.1-2.96-3.08-19.38.11-38.77.06-58.15.06zm-.45 93.44c-8.28 0-16.56-.02-24.85.02-2.03.01-3.89-.2-3.93-2.77-.04-2.57 1.77-2.86 3.83-2.86 16.77.02 33.54.02 50.31 0 2.09 0 3.84.36 3.77 2.92-.06 2.35-1.71 2.72-3.68 2.71-8.47-.04-16.96-.02-25.45-.02z"/>
    <path d="M55.98 61.43c0-4.45-.04-8.91.01-13.36.04-3.61 1.9-4.69 4.93-2.82 7.24 4.48 14.46 9.01 21.65 13.57 2.94 1.86 2.99 3.8.1 5.65-7.35 4.69-14.74 9.32-22.15 13.91-2.48 1.53-4.47.36-4.52-2.65-.08-4.77-.02-9.54-.02-14.3z"/>
  </symbol>
  <symbol xmlns="http://www.w3.org/2000/svg" viewBox="0 0 135 135" id="futbol">
    <path d="M79.29 1.56c36.42 6.52 60.66 41.32 54.15 77.74-6.51 36.42-41.33 60.66-77.75 54.15C19.28 126.93-4.96 92.11 1.56 55.7 8.08 19.29 42.88-4.96 79.29 1.56z"/>
    <path d="M38.3 114.9c-5.47-2-16.12-13.09-19.28-18.08a86.073 86.073 0 00-5.02 4.17c7.88 12.58 20.13 22.36 35.06 26.94-3.59-2.95-7.99-7.37-10.76-13.03zM57.92 104c.66.26 1.72.68 3.09 1.15 2.4.83 6.17 1.98 10.49 2.76 5.1.91 9.83 1.11 14.05.57 5.15-4.71 10.76-11.27 17.13-20.05-.33-9.06-6.54-20.24-9.22-24.66-.27-.44-.51-.85-.74-1.2-1.11-.21-2.26-.43-3.39-.64-5.13-.92-9.7-1.51-14.12-2.08-2.69-.35-5.25-.66-7.85-1.06-.36.29-.99.8-1.8 1.51a98.87 98.87 0 00-5.58 5.17c-3.68 3.69-8.55 9.23-10.93 14.76 2.15 7.47 4.77 16.02 8.64 23.68.07.02.15.05.23.09zm-8.85 23.94zM35.69 28.49c-5.9 6.02-12.11 12.69-17.55 20.75.05.49.15 1.31.31 2.35.24 1.72.69 4.39 1.38 7.44 1.09 4.78 3.06 11.46 6.27 16.35 1.27.24 2.7.5 4.37.8 2.12.38 4.36.77 6.64 1.17 3.52.61 7.13 1.24 10.52 1.87C51.87 69.8 62.3 60.73 66 57.71c-1.82-6.04-3.26-12.45-4.67-18.64-.42-1.88-.86-3.82-1.3-5.72-3.54-1.92-8.66-3.6-13.76-4.51h-.01l.06-.35h-.02l-.06.34c-4.36-.77-8.18-.9-10.55-.34zm49.52 81.73c-4.26.48-8.97.26-14.01-.65-6.34-1.13-11.58-3.06-13.89-3.99-4.39 4.2-13.15 8.54-17.07 9.37 3.6 6.79 9.49 11.61 13.19 14.15 1.04.25 2.09.46 3.14.65 8.33 1.49 16.58 1.28 24.36-.38.65-.35 1.28-.7 1.9-1.05 3.6-2.08 6.82-4.35 9.58-6.77-2.73-1.78-5.1-5.49-7.2-11.33zM13.13 99.55c-.01-.02-.02-.03-.02-.04 0 .01.01.02.02.04zm11.3-23.64c-5.57-8.79-7.52-22.48-7.95-26.24-2.05-.47-5.92-1.47-8.76-2.82a65.344 65.344 0 00-2.41 9.3c-2.78 15.53.36 30.76 7.8 43.36 1.64-1.45 3.39-2.9 5.23-4.31-.64-7.26 3.41-15.04 6.09-19.29zm98.3-40.21s0 .01 0 0c.06.12.13.22.18.32-.05-.1-.11-.2-.18-.32zM84.06 22.14c4.77 1.94 16.87 12.54 19.94 16.65 7.16-.04 13.39 1.11 18.15 3.34l.32-3.54c.1-1.09.19-2.07.26-2.88-7.84-13.61-20.66-24.25-36.49-29.06-1.5.53-3.04.98-4.55 1.19.89 3.28 2.12 9.28 2.37 14.3zm-48.23 4.6c2.62-.5 6.39-.34 10.72.43 5.24.94 10.51 2.67 14.19 4.63 3.36-2.21 15.57-8.53 21.62-9.67-.27-5.12-1.61-11.53-2.52-14.63-2-.95-3.96-2.1-6.04-3.3-.01 0-.02-.02-.02-.02C60 2.85 46.68 6.09 35.44 12.74c-.58 4.78-.27 10.46.39 14zm85.32 63.84c-.05 5.65-1.62 11.46-4.66 17.34 6.83-8.18 11.69-18.19 13.7-29.43.48-2.65.78-5.3.91-7.93-1.22 5.22-4.02 13.74-9.95 20.02zm-34.17 37.19a63.508 63.508 0 0018.76-9.66c-4.42 2.37-8.26 3.39-11.4 4.01a56.596 56.596 0 01-7.36 5.65zm17.38-87.29c-1.66 7.87-5.22 15.43-10.05 21.38 2.55 4.09 9.49 16.06 10.06 26.03.41.11.91.21 1.48.31 4.01.72 10.98 1.25 13.93 1.35 7.16-7.48 9.63-18.78 10.22-22.08.06-.32.1-.58.13-.78-.77-7.41-4.59-17.09-7.84-22.58-2.51-1.3-5.5-2.28-8.89-2.89-2.77-.49-5.81-.74-9.04-.74z" fill="#e7e7e7"/>
  </symbol>
  <!--smiles view-->
  <view id="megusta-view" viewBox="0 0 200 200"/>
  <use xlink:href="#megusta" width="200" height="200" x="0" y="0"/>
  <view id="nomegusta-view" viewBox="200 0 200 200"/>
  <use xlink:href="#nomegusta" width="200" height="200" x="200" y="0"/>
  <view id="smilebarra-view" viewBox="400 0 523 36"/>
  <use xlink:href="#smilebarra" width="523" height="36" x="400" y="0"/>
  <view id="positive-view" viewBox="923 0 136 136"/>
  <use xlink:href="#positive" width="136" height="136" x="923" y="0"/>
  <view id="negative-view" viewBox="1059 0 136 136"/>
  <use xlink:href="#negative" width="136" height="136" x="1059" y="0"/>
  <view id="neutral-view" viewBox="1195 0 136 136"/>
  <use xlink:href="#neutral" width="136" height="136" x="1195" y="0"/>
  <!--post view-->
  <view id="comentariopost-view" viewBox="1331 0 200 200"/>
  <use xlink:href="#comentariopost" width="200" height="200" x="1331" y="0"/>
  <view id="correopost-view" viewBox="1531 0 200 200"/>
  <use xlink:href="#correopost" width="200" height="200" x="1531" y="0"/>
  <view id="facebookpost-view" viewBox="1731 0 200 200"/>
  <use xlink:href="#facebookpost" width="200" height="200" x="1731" y="0"/>
  <view id="twitterpost-view" viewBox="1931 0 200 200"/>
  <use xlink:href="#twitterpost" width="200" height="200" x="1931" y="0"/>
  <view id="whatsapppost-view" viewBox="2131 0 200 200"/>
  <use xlink:href="#whatsapppost" width="200" height="200" x="2131" y="0"/>
  <view id="rsspost-view" viewBox="2331 0 200 200"/>
  <use xlink:href="#rsspost" width="200" height="200" x="2331" y="0"/>
  <!--hamburguer view-->
  <view id="mas-view" viewBox="2531 0 200 200"/>
  <use xlink:href="#mas" width="200" height="200" x="2531" y="0"/>
  <view id="menos-view" viewBox="2731 0 200 200"/>
  <use xlink:href="#menos" width="200" height="200" x="2731" y="0"/>
  <view id="telegram-view" viewBox="2931 0 200 200"/>
  <use xlink:href="#telegram" width="200" height="200" x="2931" y="0"/>
  <view id="twitter-view" viewBox="3131 0 200 200"/>
  <use xlink:href="#twitter" width="200" height="200" x="3131" y="0"/>
  <view id="youtube-view" viewBox="3331 0 200 200"/>
  <use xlink:href="#youtube" width="200" height="200" x="3331" y="0"/>
  <view id="instagram-view" viewBox="3531 0 200 200"/>
  <use xlink:href="#instagram" width="200" height="200" x="3531" y="0"/>
  <view id="linkedin-view" viewBox="3731 0 200 200"/>
  <use xlink:href="#linkedin" width="200" height="200" x="3731" y="0"/>
  <view id="facebook-view" viewBox="3931 0 200 200"/>
  <use xlink:href="#facebook" width="200" height="200" x="3931" y="0"/>
  <view id="usercomment-view" viewBox="4131 0 200 200"/>
  <use xlink:href="#usercomment" width="200" height="200" x="4131" y="0"/>
  <view id="rss-view" viewBox="4331 0 200 200"/>
  <use xlink:href="#rss" width="200" height="200" x="4331" y="0"/>
  <!--services view-->
  <view id="horoscopo-view" viewBox="4531 0 135 135"/>
  <use xlink:href="#horoscopo" width="135" height="135" x="4531" y="0"/>
  <view id="juegos-view" viewBox="4666 0 135 135"/>
  <use xlink:href="#juegos" width="135" height="135" x="4666" y="0"/>
  <view id="loteria-view" viewBox="4801 0 135 135"/>
  <use xlink:href="#loteria" width="135" height="135" x="4801" y="0"/>
  <view id="cartelera-view" viewBox="4936 0 135 135"/>
  <use xlink:href="#cartelera" width="135" height="135" x="4936" y="0"/>
  <view id="television-view" viewBox="5071 0 135 135"/>
  <use xlink:href="#television" width="135" height="135" x="5071" y="0"/>
  <view id="futbol-view" viewBox="5206 0 135 135"/>
  <use xlink:href="#futbol" width="135" height="135" x="5206" y="0"/>
  <!--post view-->
  <view id="linkedinpost-view" viewBox="5341 0 200 200"/>
  <use xlink:href="#linkedinpost" width="200" height="200" x="5341" y="0"/>
</svg>